<svg width="560" height="360" viewBox="0 0 560 360" fill="none" xmlns="http://www.w3.org/2000/svg">
  <rect width="560" height="360" rx="36" fill="#ECFDF5"/>
  <path d="M116 88h150c28 0 50 22 50 50v144H166c-28 0-50-22-50-50V88Z" fill="#FFFFFF" stroke="#0369A1" stroke-width="10"/>
  <path d="M316 138c0-28 22-50 50-50h78v194H316V138Z" fill="#DDF7E8" stroke="#0369A1" stroke-width="10"/>
  <path d="M176 136h76M176 174h94M176 212h64M360 136h42M360 174h46M360 212h34" stroke="#0C4A6E" stroke-width="12" stroke-linecap="round"/>
  <path d="M316 92v188" stroke="#0369A1" stroke-width="10" stroke-linecap="round"/>
  <circle cx="432" cy="274" r="42" fill="#FDE68A"/>
  <path d="M414 274l12 12 26-30" stroke="#0C4A6E" stroke-width="10" stroke-linecap="round" stroke-linejoin="round"/>
</svg>

